<?xml version="1.0" encoding="UTF-8"?>
<svg id="Layer_2" data-name="Layer 2" xmlns="http://www.w3.org/2000/svg" viewBox="0 0 984.37 174.74">
  <defs>
    <style>
      .cls-1 {
        fill: #45b647;
      }

      .cls-2 {
        fill: #050505;
      }

      .cls-3 {
        fill: #3fa0ec;
      }

      .cls-4 {
        fill: #fefefe;
      }
    </style>
  </defs>
  <g id="Layer_1-2" data-name="Layer 1">
    <g>
      <path class="cls-2" d="M488.36,116.44c-3.78,1.17-17.43,2.54-18.84-1.66l-.21-66.88c-.7-6.62,15.41-5.2,18.13-3.03,6.42,8.8,10.55,20.52,16.74,29.26.72,1.01.96,2.6,2.67,2.33l17.54-31.48c2.36-2.23,16.4-2.21,17.53-.6,2.62,3.77-.95,61.15.24,70.36-1.22,4.59-18.8,3.36-18.8.2v-36.5l-10.53,18.97c-13.84,9.1-17.27-9.03-22.97-17.97l-1.5,3.5v33.5Z"/>
      <path class="cls-2" d="M947.36,119.44c1.08.74-.6,5.64,7.47,6.06,9.6.5,9.45-6.21,9.52-14.06-9.34,4.98-22.84,6.79-31.03-1.47s-7.92-25.59-4.24-35.32c5.67-15.02,24.34-17.35,35.77-7.21.91.02.22-5.01,2.01-5.01h15c1.1,0,1.43,2.44,1.55,3.45,1.34,11.38,1.24,42.59-.05,54.05-2.15,19.07-23.93,22.58-39.44,18.44-7.71-2.06-17.5-10.09-15.56-18.94,2.96.6,17.83-.81,19,0ZM952.07,76.66c-8.28,1.89-9.84,28.02,5.57,24.57,9.65-2.16,11.18-28.41-5.57-24.57Z"/>
      <path class="cls-2" d="M293.36,112.44v21.5c0,.33-1.32,1.52-1,2.5h-17.5c-.11,0-1.5-1.39-1.5-1.5v-70c0-3.14,14.91-3.11,17.34-2.54,1.85.43.54,4.98,2.65,5.04,2.61-5.33,12.64-6.7,18.43-5.9,19.48,2.67,21.61,28.82,15.87,43.69-5.26,13.64-24,16.82-34.28,7.22ZM301,75.76c-13.61.93-11.41,35.48,5.66,26.46,6.13-3.24,7.27-27.34-5.66-26.46Z"/>
      <path class="cls-2" d="M664.36,43.44c2.94-1.07,16.22-2,17.56-.06l.44,33.06c2.82,2.93,12.46-12.83,15.7-13.79,2.18-.65,13.14-.57,15.84-.25,4.13.48,4.39,1.95,2,5.1-2.16,2.84-17.36,18.14-17.37,19.44,2.96,5.91,20.67,22.95,20.89,28,.09,2.1-.31,1.18-1.44,1.63-2.88,1.14-14.94,1.56-17.6.36-4-1.82-15.3-19.11-16.53-19.49-2.21-.68-1.4,1.51-1.49,2.49-.36,3.88,1.58,14.15-.25,16.27s-17.75,2.15-17.75-1.25V43.44ZM682.86,77.44v1c.65-.33.65-.67,0-1Z"/>
      <path class="cls-2" d="M417.86,62.44c1.59.48,2.39,5.26,2.99,4.99,19.93-13.94,35.81-3.77,37.55,19.47.34,4.6.62,25.2-.7,28.31-1.59,3.74-15.46,2.33-19.34,1.23v-31.5c0-9.5-15.67-12.47-17.02-1.02-.7,5.94,1.34,28.46-.47,31.53-1.55,2.63-15.08,2.68-17.52,1.49-2.07-1.01-1.87-3.05-2.05-4.95-1.01-10.34-1.18-35.97,0-46.11.12-1.01.46-3.45,1.55-3.45,3.32,0,12.74-.69,15,0Z"/>
      <path class="cls-2" d="M912.01,66.79c1.09,1.01,3.61,4.81,4.24,6.26,2.79,6.34,3.14,32.49,2.15,39.94-.16,1.17-.16,2.05-.95,3.05-1.8,2.28-19.4,3.54-18.59-3.59-9.17,9.87-32.88,6.19-34.53-8.48-1.51-13.46,8.92-17.5,19.98-20.06,4.47-1.03,19.12-.32,13.12-8.06-5.41-6.98-12.29,2.94-15.61,3.57-2.06.39-13.62.15-14.45-1.03.83-19.05,34.02-21.41,44.62-11.6ZM899.36,92.44c-4.52.83-16.98,1.6-17.06,7.46-.07,4.64,3.32,5.81,7.56,5.6,6.89-.34,10.39-6.69,9.5-13.06Z"/>
      <path class="cls-2" d="M587.35,112.44c-12.69,10.85-38.04,5.43-34.92-14.44,2.07-13.19,21.74-13.6,31.4-15.59,5.43-1.12,2.31-9-3.99-8.86-4.32.1-7.02,5.3-10,5.87-7.28,1.4-18.12,1.31-12.33-8.34,9.29-15.46,46.76-14.11,48.89,9.81.37,4.18.45,32.52-.54,34.55-1.43,2.94-20.17,4.41-18.52-3ZM587.36,92.44c-4.52.83-16.98,1.6-17.06,7.46-.07,4.64,3.32,5.81,7.56,5.6,6.89-.34,10.39-6.69,9.5-13.06Z"/>
      <path class="cls-2" d="M357.36,95.44c-.94,6.04,3.71,11.74,9.95,9.47,1.73-.63,5.19-4.47,5.55-4.47h17c3.49,0-.28,6.93-1.5,8.5-9.8,12.58-38.4,12.23-47.19-1.81-7.31-11.68-5.24-34.38,7.48-41.9,13.83-8.18,35.66-4.3,41.75,11.67,1.46,3.82,4.55,18.54-1.54,18.54h-31.5ZM373.36,84.44c.31-15.33-17.77-14.86-17,0h17Z"/>
      <path class="cls-2" d="M775.86,100.44c4.3,1.31-1.03,8.17-2.96,10.04-7.28,7.07-20.17,8.64-29.77,6.68-17.9-3.65-22.88-22.67-18.09-38.54,6.23-20.66,38.49-23.44,49.51-5.88,2.46,3.91,8.47,22.69,1.31,22.69h-32.5c.53,5.78,3.14,11.76,10.05,9.58,1.9-.6,5.32-4.58,6.45-4.58,3.49,0,13.64-.72,16,0ZM759.36,84.44c1.49-14.88-17.69-14.86-16,0h16Z"/>
      <path class="cls-2" d="M794.36,43.44c.69-1.09,15.54-1.62,17.06-.56,2.37,1.65-.16,15.19,1.37,18.63,1.75,2.52,12.28-.61,15.13,1.87.66.95.77,12.16.3,12.92-1.19,1.91-13.07.89-15.86,1.14v17.5c0,10.31,14.55,4.55,16.56,7.44.82,11.95,3.24,15.62-10.11,15.1-12.24-.48-22.97-3.66-24.46-17.53-.38-3.55.81-21.71.01-22.51-1.28-1.29-10.01,3.23-11.05-4.45-1.48-10.96.69-11.34,11.04-10.55v-19Z"/>
      <path class="cls-2" d="M633.86,62.44c1.84.57,1.59,4.28,1.51,6,6.15-5.79,13.6-6.83,21.85-5.86,1.35,2.86,2.44,15.76-.5,16.72-4.71,1.54-14.77-2.16-18.8,3.2-3.69,4.9-.25,24.31-1.58,31.42-1.1,5.86-18.64,4.32-19.81.86l.84-52.34c4.27.81,12.93-1.11,16.5,0Z"/>
      <path class="cls-2" d="M837.86,97.44h17c.11,0,1.5,1.39,1.5,1.5v16c0,3.68-20,3.68-20,0v-16c0-.27,1.17-.99,1.5-1.5Z"/>
      <path class="cls-2" d="M226.15,42.74c18.09-1.74,34.59,6.06,36.93,25.48,3.19,26.5-1.33,50.54-33.11,50.12-31.49-.42-34.15-24.56-31.6-50.39,1.53-15.47,13.05-23.79,27.78-25.21ZM221.67,61.75c-4.44,4.87-4.24,26.91-2.05,32.93,4.02,11.04,20.09,10.09,22.5-.97,1.63-7.51,2.65-27.8-3.72-32.81-4.4-3.46-12.99-3.26-16.74.85Z"/>
      <path class="cls-4" d="M682.86,77.44c.65.33.65.67,0,1v-1Z"/>
      <path class="cls-3" d="M115.36,6.34c3.2-.03,5.43,3.41,8.77,3.83,4.65.58,11.28-3.51,11.24,5.18l2.99-1c-2.23,4.4,6.27,7.36,9.25,9.97,1.09.96,6.51,7.55,7,7.73,3.41,1.24,6.42-1.59,7.43,4.97.28,1.83-1.12,3.12,0,6.09.35.93,1.76,1.13,2.22,2.05,1.02,2.02,2.56,7.61,4.73,7.97,1,.16,2.66-1.1,3.24-.72.33.21,3.9,6.3,3.97,6.68.39,1.93-1.84,7.06-3.86,7.91l3.03,17.34c-1.45-.2-3.45-.03-5,0-.07-5.4.6-11.72-1.77-16.73-1.76-3.72-7.53,2.26-7.27,5.16.24,2.64,5.7,8.09,6.03,11.57-.66.06-1.35-.05-2.01,0l.92,1.92c-.56.31-1.75-.1-1.92.07l-5.5-11.02c-2.88-.76-2.47,1.7-4.11,2.87-3.61,2.57-7.32,5.19-11.19,7.35l-1.91,26.18c1.8,3.9,1.71,7.22,3.53,11.31,1.44,3.24,5.66,11.24,9.47,10.17,4.39-1.23,13.94-23.38,13.71-28.85,1.18.25,4.66.16,6,0-1.18,2.39-2.46,4.47-3.5,7.01-1.78,4.39-2.73,10.2-4.84,14.67-.35.75-6.04,7.21-6.28,8.23-.87,3.76,2.03,7.54-1.34,11.38-3.99,4.55-8.63.38-9.88.88-.46.18-5.2,6.65-6.48,7.5-.55.37-2.86,1.21-4.53,2.2-4.25,2.51-7.84,2.31-9.16,8.13.17-2.57.36-5.71-1-8,3.51.05,18.12-10.6,18.79-12.71-.8-2.79,2.13-6.87,1.99-8.62-.07-.89-7.15-12.74-7.78-13.19-1.32-.93-1.66,1.13-1.97,2.05-3.64,10.47-6.44,21.3-13.03,30.47-.43-.27-6.26-2.05-7-2,3.13-15.73,3.01-32.41-1-48,1.33-.02,2.67.06,4,0,1.03,6.79,2.76,14.66,3.04,21.46.36,8.65-1.49,16.99-1.55,25.54,3.89-6.17,12.51-21.8,12.48-28.64,0-.54-2.27-9.85-2.48-10.34-.25-.57-7.91-8.8-8.49-9.01-.43-1.33.76-2.25,1-3,1.45.35,12.62,14.49,13.01,10.49-1.07-2.26.99-5.79.99-6.99v-14.5l-13,5c-.13-1.35-.59-1.31-1-2,2.78-2.22,12.89-5.45,13.86-8.71.42-1.42-.72-8.43-1-10.65-.84-6.68-3.15-12.98-3.86-19.64.16-.03,2.86-.93,3-1,1.23,10.08,5.84,19.66,5.01,30,2.5-1.31,14.16-9.42,13.86-11.31-.36-2.26-14.05-18.77-17.87-19.69,3.09-2.34,1.35-3.6,2.25-4.76.42-.54,1.65-.13,1.75-.24,4.46.85,8.36,3.15,12.35,5.15,1.75.87,9,7.02,9.65,3.33.12-.68-5.6-11.94-6.19-12.3-.78-.48-2.7-.04-4-.46-4.77-1.54-9.17-4.56-11.82,2.28.15-1.54.24-4.57,0-6,3.3-1.24,12.05-.17,7.92-5.41-1.67-2.12-16.47-15.17-17.92-13.58l.99,11c-1-.19-2.86-.07-4,0,1.23-1.36.18-9.36-.14-9.86-.37-.58-2.8-.48-3.64-1.35-1.07-1.1-.62-3.84-2.25-5.26-1.41-1.22-6.8-2.66-8.97-2.53-.17-4.71,2.42-1.36,1-5ZM157.41,68.3c1.44,1.01,5.55-2.03,5.66-3.45.5-6.6-13.98-13.65-19.7-14.5,3.98,4.79,8.55,9.18,12.47,14.04.96,1.19,1.4,3.8,1.58,3.92Z"/>
      <path class="cls-3" d="M100.36,3.34c-1.51,1.64-2.2.64-2,4-9.53-.14-28.92,1.17-36.76,6.69-.97.68-1.74.07-1.24,2.3,3.43.17,6.95-.3,10.37.13,4.7.59,16.39,4,20.01,3.59,3.98-.45,5.03-6.18,8.62-7.71.34.93,2.18,2.27,3,3-2.46-.02-7.36,5.02-5.99,6.98.35.5,9.32,3.01,11.49,4.02,3.51,1.62,11.57,6.74,14.5,7,1.03,3.6-1.8,2.78-2,3l-27.43-12.06-4.57,6.06c-.27-.18-2.2.05-3,0-.1-2.44,4.74-5.61,1.99-7.49-3.01-2.05-25.57-5.26-27.54-2.57-2.53,3.46,1.66,2.97,3.89,4.21,3.49,1.94,7.79,5.05,10.66,7.85-.11.18-.65,2.84-1,4-2.46-3.1-12.95-10.36-16.23-9.84-2.14.34-4.4,2.62-7.24,2.67-3.16.06-7.14-3.15-8.81-2.73-3.38.84-16.47,18.77-18.52,22.59-2.4,4.49-4.94,10.21-5.19,15.31-3.89-.18-2.2-2.15-7-2l2.99-.99c.66-5.08,2.84-9.65,5.13-14.17,1.18-2.33,4.57-8.12,6.3-10.45,2.7-3.63,11.65-10.09,13.06-13.41,2.21-5.19-2.22-9.64,4.54-14.44,3.17-2.25,8.32-3.71,11.97-2.02,1.48.69,2.26,3.44,4.48,3.47,1.73.02,7.8-3.14,10.3-3.71,6.88-1.58,14.85-2.69,21.89-2.9,2.96-.09,6.04,1.46,9.34-.37Z"/>
      <path class="cls-3" d="M12.36,84.34c1.21,4.83.46,17.94,2.88,21.43.98,1.41,8.75-.95,9.92,7.34.88,6.23-2.96,5.26-4.33,8.22-.7,1.52,15.78,23.16,19.53,25.02-.12.13-1.96,2.83-2,3-4.08-3.81-9.57-8.19-13-12.5-1.52-1.92-1.87-4.07-3.04-5.75-1.59-2.29-1.54-3.28-2.29-4.43-2.81-4.3-5.59-1.92-7.45-2.52-.4-.13-3.95-5.32-4.26-6.26-2.63-7.96,2.56-8.25,3.07-12.09.7-5.19-3.78-15.27-2.04-21.45.7.13,2.25.11,3,0Z"/>
      <path class="cls-3" d="M57.36,156.34c1.68,2.55,16.95,8.01,18.53,7.78,1.23-.18,2.98-7.96,9.86-7.74,7.63.24,8.55,8.84,9.21,9.02,4.08,1.11,10.07-1.68,14.39-1.06.02.22,1.8,3.72,2,4-4.73.11-10.9-.31-15.43,1.07-6.09,1.85-4.17,6.8-14.06,4.91-4.11-.79-3.85-5.73-5.17-6.03-1.62-.36-3.81.42-5.65.02-.68-.15-.63-1.57-1.48-1.88-2.33-.86-11.31-4.45-12.6-4.15-1.06.25.18,2.57-2.11,2.07-1.01-.22.97-2.1-4.51-2.01,2.19-2.54,6.39-2.11,7-6Z"/>
      <path class="cls-1" d="M10.36,62.34c4.8-.15,3.11,1.82,7,2,.32.01.69.04,1,0,3.86,2.44,2.89,8.04,3,12-2.38,4.32-2.54,7.08-9,8-.75.11-2.3.13-3,0-12.31-2.37-12.99-21.55,1-22Z"/>
      <path class="cls-1" d="M167.36,84.34c.98-.09,2.01.02,3,0,1.55-.03,3.55-.2,5,0,7.03.96,7.87,8.42,7.06,14.54-.34,2.6-5.59,5.16-8.06,5.46-1.34.16-4.82.25-6,0-7.15-1.52-9.05-12.93-4-18,.17-.17,1.35.24,1.92-.07l-.92-1.92c.66-.06,1.35.05,2.01,0Z"/>
      <path class="cls-1" d="M45.36,143.34c.39,0,1.52,1.11,2.42,1.06,1.17-.06-.15-2.58,1.57-2.05l.11,1.93c.6.13.83-.95.9-.94,2.02.24,5.4,2.24,6,4,.11.33.97,6.29,1,7,.02.63.09,1.42,0,2-.61,3.89-4.81,3.46-7,6-.88.01-1.98.73-3.3.65-7.48-.45-10.38-6.87-8.7-13.65.04-.17,1.88-2.87,2-3,1.19-1.34,3.13-2.95,5-3Z"/>
      <path class="cls-1" d="M125.36,154.34c.12.07,1.93,1.88,2,2,1.36,2.29,1.17,5.43,1,8-.58,8.91-12.04,10.91-17,4-.2-.28-1.98-3.78-2-4-.04-.56,1.46-6.7,1.95-7.56.93-1.64,5.22-4.32,7.05-4.44.74-.05,6.57,1.73,7,2Z"/>
      <path class="cls-1" d="M100.36,3.34c3.38-3.66,4.93-3.85,10.31-2.75,3.02.61,3.63,3.03,4.69,5.75,1.42,3.64-1.17.29-1,5,.02.63-.15,1.59,0,2-.92.57-2.05,1.67-3,2-5.29,1.85-5.63.03-9,0-.82-.73-2.66-2.07-3-3-.26-.71-.95-4.18-1-5-.2-3.36.49-2.36,2-4Z"/>
      <path class="cls-1" d="M129.36,30.34c1.14-.07,3-.19,4,0,3.24.61,8.42,4.57,9,8,.24,1.43.15,4.46,0,6-.06.6.14,1.84,0,2-.1.11-1.33-.3-1.75.24-.9,1.16.84,2.42-2.25,4.76-.34.26-.63.82-1,1-.14.07-2.84.97-3,1-.61.1-1.34-.04-2,0-.17.01-2.84.03-3,0-3.31-.58-6.45-1.8-8-5-1.36-2.8-1.3-6.86-1-10,.06-.6-.14-1.84,0-2,.2-.22,3.03.6,2-3,.31.03.7.04,1,0,3.32-.43,2.8-2.89,3-3,.35-.2,2.17.05,3,0Z"/>
      <path class="cls-1" d="M116.36,88.34c.96-.14,3.05-.15,4,0,2.71.44,1.62.8,3,2,.56.49,1.69,1.48,2,2,.41.69.87.65,1,2,.19,1.95-.42,4.15-1,6-.24.75-1.43,1.67-1,3-.86-.31-2.46.98-3,1-1.33.06-2.67-.02-4,0-.95.02-2.13.13-3,0-3.68-.55-.99-2.48-4-4,0-1.74-.37-7.1,0-8,.03-.08,1.16.09,1.57-.42,1.43-1.76,2.27-3.26,4.43-3.58Z"/>
      <path class="cls-1" d="M85.36,30.34c.8.05,2.73-.18,3,0,.33.23,3.9,6.61,4,7,.16.6.09,2.26,0,3-.23,1.95-1.47,3.9-2,6-.21.82-.99,1.88-1,2l-11,1c-.28-.17-.64-.69-1-1-1.19-1.04-4.09-4.53-4-6,.07-1.15,2.93-1.66-1-2,.33-1.33.61-2.69,1-4,.35-1.16.89-3.82,1-4,.83-1.38,8.92-2.14,11-2Z"/>
      <path class="cls-3" d="M120.36,38.34c-.3,3.14-.36,7.2,1,10l-16.36,7.9c-2.39,3.81-.41,7.75,1.46,11.27.47.88,1.64,1.06,2.17,2.1,2.88,5.7,6.53,12.55,7.73,18.73-2.16.32-3,1.82-4.43,3.58-.41.51-1.54.35-1.57.42-3.35.21-5.07-2.87-6.83-3.89-2.54-1.47-13.9-7.52-15.9-7.94-1.1-.23-11.9,2.16-12.84,2.76-1.54.98-8.84,12.35-10.23,14.77-7.67,13.34-14.04,29.77-14.19,45.31-.06,0-.29,1.07-.9.94l-.11-1.93c-1.71-.52-.39,1.99-1.57,2.05-.9.05-2.03-1.07-2.42-1.06,3.07-21.59,10.93-39.65,22.7-57.74,2.31-3.55,8.9-7.34.12-10.57s-36.41-4.03-45.01-.62c-.79.31-1.41,1.22-1.8,1.93-.11-3.96.86-9.56-3-12,4.15-.56,8.06-5.04,12.08-7.42,9.33-5.52,31.59-17.47,41.92-16.58,3.93.34,1.07.85,1,2l-2,2c-8.41-1.84-38.59,14.62-45.72,20.71-9.51,8.12,2.17,4.43,7.18,4.25,10.53-.37,22.44-.29,32.81,1.27,3.46.52,5.88,3.95,8.73-.23,3.63-2.1,6.87,1.06,9-2,.25-.35.84-.65,1-1,2.78-1,4.41-2.6,6-5,5.93-8.93.58-7.44-1-12-.12-.36-.05-1.47,0-2,.01-.12.79-1.18,1-2,2.1.88,2.74,4.04,4.42,5.08,1.97,1.23,3.48.48,4.87.96,1.61.56-.49,3.17,6-.07.54-.27.65-1.46,1.51-1.9,1.8-.93,11.79-4.6,12.15-5.15.33-.5-.07-2.05.07-2.92l-27.01-2c.09-.74.16-2.4,0-3l28,1ZM101.13,64.58c-1.31-.76-5.73-1.04-7.3-.37-.69.3-8.72,6.64-9.02,7.13-.52.86.09,3.45.57,4.22.63,1.03,18.53,8.85,21.68,10.57,2.18,1.19,3.38,3.77,6.3,3.19,1.1-.84-11.04-24.05-12.24-24.75Z"/>
      <path class="cls-3" d="M110.36,100.34c3.01,1.52.32,3.45,4,4-2.19,6.01-8.02,12.7-12.44,17.59-6.33,7.01-15.68,14.7-23.64,19.83-6.94,4.47-15.13,7.17-20.92,12.58-.03-.71-.89-6.67-1-7,1.88,1.66,2.62.29,4.14-.3,15.2-5.89,36.82-23.44,46.3-36.76.65-.92,4.23-6.21,4.33-6.59.27-1.13-.76-2.45-.77-3.35Z"/>
      <path class="cls-3" d="M114.36,13.34c.23.63,3.4,2.94,3.96,3.76,2.87,4.19,5.9,8.6,8.04,13.24-.2.11.32,2.57-3,3-1.34-6.63-7.08-13.54-12-18,.95-.33,2.08-1.43,3-2Z"/>
      <path class="cls-3" d="M98.12,148.09c-2.93,2.95-8.91,1.17-8.81-4.22.21-11.5,15.47-2.48,8.81,4.22Z"/>
      <rect class="cls-3" x="151.83" y="108.75" width="7.06" height="6.17" transform="translate(35.69 261.25) rotate(-87.06)"/>
      <path class="cls-3" d="M132.36,53.34c.03,12.98-5.29,24.9-9,37-1.38-1.2-.29-1.56-3-2,3.6-11.53,8.32-22.73,9-35,.16.03,2.83.01,3,0Z"/>
      <circle class="cls-3" cx="40.74" cy="107.41" r="6.49"/>
      <circle class="cls-3" cx="95.62" cy="101.35" r="4.23"/>
      <circle class="cls-3" cx="63.3" cy="56.95" r="4.68"/>
    </g>
  </g>
</svg>